<?xml version="1.0" encoding="UTF-8"?>
<svg id="Layer_1" data-name="Layer 1" xmlns="http://www.w3.org/2000/svg" viewBox="0 0 128 128">
  <defs>
    <style>
      .cls-1 {
        fill: #454a75;
      }

      .cls-1, .cls-2, .cls-3, .cls-4 {
        stroke-width: 0px;
      }

      .cls-1, .cls-3, .cls-4 {
        fill-rule: evenodd;
      }

      .cls-2, .cls-3 {
        fill: #3065d4;
      }

      .cls-4 {
        fill: #fff;
      }
    </style>
  </defs>
  <path class="cls-2" d="M64,128c35.35,0,64-28.65,64-64S99.35,0,64,0,0,28.65,0,64s28.65,64,64,64Z"/>
  <path class="cls-1" d="M3.14,44.16C11.5,18.54,35.6,0,64,0s52.5,18.54,60.86,44.16c-40.64-6.45-81.21-6.43-121.72,0Z"/>
  <path class="cls-3" d="M127.91,60.53c.06,1.15.09,2.3.09,3.47,0,35.32-28.68,64-64,64S0,99.32,0,64c0-1.16.03-2.32.09-3.47,42.36-5.36,84.96-5.37,127.82,0Z"/>
  <path class="cls-4" d="M.09,60.53c.3-5.69,1.35-11.17,3.05-16.37,40.51-6.43,81.08-6.45,121.72,0,1.7,5.2,2.74,10.69,3.05,16.37-42.86-5.37-85.46-5.36-127.82,0Z"/>
  <path class="cls-4" d="M27.52,11.42v105.16c2.83,1.97,5.82,3.71,8.96,5.21V6.21c-3.14,1.5-6.13,3.24-8.96,5.21Z"/>
  <path class="cls-4" d="M91.52,6.21v115.58c3.14-1.5,6.13-3.24,8.96-5.21V11.42c-2.83-1.97-5.82-3.71-8.96-5.21Z"/>
</svg>